<svg width="196" height="196" viewBox="0 0 196 196" fill="none" xmlns="http://www.w3.org/2000/svg">
<g clip-path="url(#clip0_2_2)">
<path d="M179.617 15.453C179.566 15.403 179.515 15.353 179.463 15.304C160.774 -3.24497 130.986 -5.15897 110.093 10.863C108.002 12.462 106.317 13.916 104.791 15.438C104.747 15.482 104.704 15.526 104.661 15.571L71.224 49.012C68.295 51.941 68.295 56.69 71.225 59.618C74.155 62.548 78.904 62.547 81.831 59.617L115.392 26.051C115.427 26.016 115.461 25.981 115.496 25.946C116.519 24.936 117.701 23.926 119.211 22.772C134.219 11.264 155.622 12.674 169 26.053C169.044 26.097 169.089 26.141 169.134 26.184C183.786 40.97 183.745 64.926 169.01 79.667L135.451 113.23C132.522 116.159 132.522 120.908 135.452 123.836C136.917 125.3 138.836 126.032 140.755 126.032C142.674 126.032 144.594 125.3 146.059 123.835L179.619 90.272C200.241 69.641 200.241 36.077 179.617 15.453Z" fill="#6B21E3"/>
<path d="M113.23 135.437L79.689 168.979C79.623 169.046 79.557 169.115 79.493 169.184C75.785 172.832 71.434 175.633 66.548 177.517C52.553 182.935 36.66 179.587 26.067 168.993C11.299 154.209 11.299 130.153 26.067 115.374L59.624 81.8301C61.03 80.4231 61.821 78.5151 61.821 76.5251V76.5121C61.821 72.3691 58.464 69.0181 54.321 69.0181C52.186 69.0181 50.259 69.9131 48.893 71.3461L15.458 104.768C-5.15199 125.396 -5.15399 158.963 15.456 179.596C25.551 189.693 39.084 195.075 52.867 195.075C59.281 195.074 65.751 193.908 71.951 191.509C78.873 188.842 85.039 184.839 90.277 179.613C90.353 179.538 90.427 179.46 90.5 179.381L123.837 146.044C126.766 143.114 126.766 138.366 123.836 135.437C120.909 132.509 116.16 132.509 113.23 135.437Z" fill="#21E386"/>
<path d="M59.15 135.908C60.615 137.373 62.534 138.105 64.454 138.105C66.373 138.105 68.293 137.373 69.757 135.909L135.921 69.7481C138.851 66.8191 138.851 62.0701 135.922 59.1421C132.993 56.2121 128.244 56.2131 125.316 59.1411L59.152 125.302C56.221 128.23 56.221 132.979 59.15 135.908Z" fill="url(#paint0_linear_2_2)"/>
</g>
<defs>
<linearGradient id="paint0_linear_2_2" x1="160" y1="36.5001" x2="59.5" y2="134.5" gradientUnits="userSpaceOnUse">
<stop stop-color="#6B21E3" stop-opacity="0.77"/>
<stop offset="1" stop-color="#21E386"/>
</linearGradient>
<clipPath id="clip0_2_2">
<rect width="195.085" height="195.085" fill="white"/>
</clipPath>
</defs>
</svg>
