<svg width="271" height="269" viewBox="0 0 271 269" fill="none" xmlns="http://www.w3.org/2000/svg">
<rect x="181.286" y="0.0673828" width="125.88" height="254.597" rx="62.9399" transform="rotate(45.1233 181.286 0.0673828)" fill="white"/>
<path d="M219.285 50.2988C219.233 50.2475 219.181 50.1962 219.128 50.146C199.968 31.1297 169.429 29.1675 148.01 45.5931C145.866 47.2324 144.139 48.723 142.574 50.2834C142.529 50.3285 142.485 50.3736 142.441 50.4197L108.162 84.7033C105.159 87.706 105.159 92.5747 108.163 95.5765C111.166 98.5803 116.035 98.5793 119.036 95.5754L153.442 61.1638C153.478 61.1279 153.513 61.092 153.549 61.0561C154.598 60.0207 155.81 58.9852 157.358 57.8022C172.744 46.0042 194.686 47.4498 208.401 61.1658C208.446 61.2109 208.492 61.256 208.538 61.3001C223.56 76.4586 223.517 101.018 208.411 116.131L174.007 150.539C171.004 153.542 171.004 158.411 174.008 161.412C175.51 162.913 177.477 163.664 179.444 163.664C181.412 163.664 183.38 162.913 184.882 161.411L219.288 127.003C240.429 105.852 240.429 71.4424 219.285 50.2988Z" fill="#6B21E3"/>
<path d="M151.226 173.305L116.84 207.693C116.772 207.761 116.705 207.832 116.639 207.903C112.838 211.643 108.377 214.514 103.368 216.446C89.0203 222 72.7269 218.568 61.867 207.707C46.7269 192.55 46.7269 167.888 61.867 152.737L96.2695 118.348C97.7109 116.905 98.5218 114.949 98.5218 112.909V112.896C98.5218 108.649 95.0802 105.213 90.8328 105.213C88.6441 105.213 86.6685 106.131 85.2681 107.6L50.9907 141.864C29.8615 163.012 29.8594 197.424 50.9887 218.577C61.338 228.928 75.212 234.446 89.3422 234.446C95.9178 234.445 102.551 233.25 108.907 230.79C116.003 228.056 122.325 223.952 127.695 218.594C127.773 218.518 127.849 218.438 127.923 218.357L162.1 184.18C165.103 181.176 165.103 176.308 162.099 173.305C159.098 170.304 154.23 170.304 151.226 173.305Z" fill="#21E386"/>
<path d="M95.7834 173.788C97.2853 175.29 99.2527 176.041 101.221 176.041C103.188 176.041 105.157 175.29 106.658 173.789L174.489 105.962C177.492 102.959 177.492 98.0901 174.49 95.0883C171.487 92.0845 166.618 92.0855 163.616 95.0873L95.7854 162.915C92.7806 165.917 92.7806 170.786 95.7834 173.788Z" fill="url(#paint0_linear_38_8)"/>
<defs>
<linearGradient id="paint0_linear_38_8" x1="199.174" y1="71.8759" x2="96.1422" y2="172.345" gradientUnits="userSpaceOnUse">
<stop stop-color="#6B21E3" stop-opacity="0.77"/>
<stop offset="1" stop-color="#21E386"/>
</linearGradient>
</defs>
</svg>
